<svg width="24" height="21" viewBox="0 0 24 21" fill="none" xmlns="http://www.w3.org/2000/svg">
<path d="M6 3.6V2.4C6 1.74 6.235 1.175 6.705 0.705C7.175 0.235 7.74 0 8.4 0H15.6C16.26 0 16.825 0.235 17.295 0.705C17.765 1.175 18 1.74 18 2.4V3.6H18.84C19.32 3.6 19.755 3.735 20.145 4.005C20.535 4.275 20.82 4.62 21 5.04L23.82 11.52C23.88 11.68 23.925 11.84 23.955 12C23.985 12.16 24 12.32 24 12.48V18C24 18.66 23.765 19.225 23.295 19.695C22.825 20.165 22.26 20.4 21.6 20.4H2.4C1.74 20.4 1.175 20.165 0.705 19.695C0.235 19.225 0 18.66 0 18V12.48C0 12.32 0.015 12.16 0.045 12C0.075 11.84 0.12 11.68 0.18 11.52L3 5.04C3.18 4.62 3.465 4.275 3.855 4.005C4.245 3.735 4.68 3.6 5.16 3.6H6ZM8.4 3.6H15.6V2.4H8.4V3.6ZM6 10.8V9.6H8.4V10.8H15.6V9.6H18V10.8H20.88L18.84 6H5.16L3.12 10.8H6ZM6 13.2H2.4V18H21.6V13.2H18V14.4H15.6V13.2H8.4V14.4H6V13.2Z" fill="#A3A3A3"/>
</svg>
