<svg width="43" height="70" viewBox="0 0 43 70" fill="none" xmlns="http://www.w3.org/2000/svg">
<rect x="1" y="1" width="40.5624" height="67.1656" rx="20.2812" stroke="#0A0A0A" stroke-width="2"/>
<path fill-rule="evenodd" clip-rule="evenodd" d="M22.1644 48.8C21.93 49.0341 21.6123 49.1656 21.2811 49.1656C20.9498 49.1656 20.6321 49.0341 20.3977 48.8L10.3977 38.8C10.2749 38.6856 10.1764 38.5476 10.1081 38.3942C10.0398 38.2409 10.0031 38.0754 10.0001 37.9076C9.99713 37.7397 10.028 37.573 10.0909 37.4174C10.1537 37.2617 10.2473 37.1203 10.366 37.0016C10.4847 36.8829 10.6261 36.7894 10.7817 36.7265C10.9374 36.6636 11.1041 36.6327 11.2719 36.6357C11.4398 36.6387 11.6053 36.6754 11.7586 36.7437C11.912 36.812 12.05 36.9105 12.1644 37.0334L20.0311 44.9L20.0311 21.25C20.0311 20.9185 20.1628 20.6006 20.3972 20.3661C20.6316 20.1317 20.9496 20 21.2811 20C21.6126 20 21.9305 20.1317 22.165 20.3661C22.3994 20.6006 22.5311 20.9185 22.5311 21.25L22.5311 44.9L30.3977 37.0334C30.5122 36.9105 30.6502 36.812 30.8035 36.7437C30.9568 36.6754 31.1224 36.6387 31.2902 36.6357C31.458 36.6327 31.6248 36.6636 31.7804 36.7265C31.9361 36.7894 32.0774 36.8829 32.1961 37.0016C32.3148 37.1203 32.4084 37.2617 32.4713 37.4174C32.5341 37.573 32.565 37.7397 32.5621 37.9076C32.5591 38.0754 32.5224 38.2409 32.454 38.3943C32.3857 38.5476 32.2872 38.6856 32.1644 38.8L22.1644 48.8Z" fill="#0A0A0A"/>
</svg>
