<svg width="60" height="48" viewBox="0 0 60 48" fill="none" xmlns="http://www.w3.org/2000/svg">
<path fill-rule="evenodd" clip-rule="evenodd" d="M7 4C6.20435 4 5.44129 4.31607 4.87868 4.87868C4.31607 5.44129 4 6.20435 4 7V41C4 41.7957 4.31607 42.5587 4.87868 43.1213C5.44129 43.6839 6.20435 44 7 44H53C53.7957 44 54.5587 43.6839 55.1213 43.1213C55.6839 42.5587 56 41.7957 56 41V11C56 10.2044 55.6839 9.44129 55.1213 8.87868C54.5587 8.31607 53.7957 8 53 8H25.5138C24.1317 7.99996 22.7805 7.59081 21.6306 6.8241C21.6306 6.82407 21.6305 6.82403 21.6304 6.824L18.1504 4.504C17.6576 4.17539 17.0786 4.00003 16.4862 4C16.4862 4 16.4863 4 16.4862 4H7ZM2.05025 2.05025C3.36301 0.737498 5.14348 0 7 0H16.4862C17.8683 3.54052e-05 19.2195 0.409192 20.3694 1.1759C20.3694 1.17593 20.3695 1.17597 20.3696 1.176L23.8496 3.496C24.3424 3.82461 24.9214 3.99997 25.5138 4C25.5138 4 25.5137 4 25.5138 4H53C54.8565 4 56.637 4.7375 57.9497 6.05025C59.2625 7.36301 60 9.14348 60 11V41C60 42.8565 59.2625 44.637 57.9497 45.9497C56.637 47.2625 54.8565 48 53 48H7C5.14348 48 3.36301 47.2625 2.05025 45.9497C0.737498 44.637 0 42.8565 0 41V7C0 5.14348 0.737498 3.36301 2.05025 2.05025Z" fill="#737373"/>
</svg>
