<svg width="24" height="24" viewBox="0 0 24 24" fill="none" xmlns="http://www.w3.org/2000/svg">
<path d="M6.66667 18.6667C7.04444 18.6667 7.36111 18.5389 7.61667 18.2833C7.87222 18.0278 8 17.7111 8 17.3333C8 16.9556 7.87222 16.6389 7.61667 16.3833C7.36111 16.1278 7.04444 16 6.66667 16C6.28889 16 5.97222 16.1278 5.71667 16.3833C5.46111 16.6389 5.33333 16.9556 5.33333 17.3333C5.33333 17.7111 5.46111 18.0278 5.71667 18.2833C5.97222 18.5389 6.28889 18.6667 6.66667 18.6667ZM6.66667 13.3333C7.04444 13.3333 7.36111 13.2056 7.61667 12.95C7.87222 12.6944 8 12.3778 8 12C8 11.6222 7.87222 11.3056 7.61667 11.05C7.36111 10.7944 7.04444 10.6667 6.66667 10.6667C6.28889 10.6667 5.97222 10.7944 5.71667 11.05C5.46111 11.3056 5.33333 11.6222 5.33333 12C5.33333 12.3778 5.46111 12.6944 5.71667 12.95C5.97222 13.2056 6.28889 13.3333 6.66667 13.3333ZM6.66667 8C7.04444 8 7.36111 7.87222 7.61667 7.61667C7.87222 7.36111 8 7.04444 8 6.66667C8 6.28889 7.87222 5.97222 7.61667 5.71667C7.36111 5.46111 7.04444 5.33333 6.66667 5.33333C6.28889 5.33333 5.97222 5.46111 5.71667 5.71667C5.46111 5.97222 5.33333 6.28889 5.33333 6.66667C5.33333 7.04444 5.46111 7.36111 5.71667 7.61667C5.97222 7.87222 6.28889 8 6.66667 8ZM10.6667 18.6667H18.6667V16H10.6667V18.6667ZM10.6667 13.3333H18.6667V10.6667H10.6667V13.3333ZM10.6667 8H18.6667V5.33333H10.6667V8ZM2.66667 24C1.93333 24 1.30556 23.7389 0.783333 23.2167C0.261111 22.6944 0 22.0667 0 21.3333V2.66667C0 1.93333 0.261111 1.30556 0.783333 0.783333C1.30556 0.261111 1.93333 0 2.66667 0H21.3333C22.0667 0 22.6944 0.261111 23.2167 0.783333C23.7389 1.30556 24 1.93333 24 2.66667V21.3333C24 22.0667 23.7389 22.6944 23.2167 23.2167C22.6944 23.7389 22.0667 24 21.3333 24H2.66667ZM2.66667 21.3333H21.3333V2.66667H2.66667V21.3333Z" fill="#A3A3A3"/>
</svg>
