<svg width="20" height="20" viewBox="0 0 20 20" fill="none" xmlns="http://www.w3.org/2000/svg">
<path d="M19.3423 0.471489C19.5835 0.646927 19.6822 0.880846 19.6383 1.17324L16.8313 18.0153C16.7947 18.2273 16.6778 18.3918 16.4804 18.5088C16.3781 18.5672 16.2648 18.5965 16.1405 18.5965C16.0601 18.5965 15.9724 18.5782 15.8773 18.5417L10.0988 16.1842L6.8313 19.7697C6.69972 19.9232 6.52793 20 6.31594 20C6.2136 20 6.12954 19.9854 6.06375 19.9561C5.92486 19.905 5.81521 19.8191 5.7348 19.6985C5.65439 19.5778 5.61419 19.4444 5.61419 19.2982V14.3421L0.438752 12.2259C0.168284 12.1235 0.0220854 11.9225 0.000155546 11.6228C-0.0217743 11.3377 0.0951848 11.1221 0.351033 10.9759L18.5966 0.449559C18.8525 0.29605 19.101 0.30336 19.3423 0.471489ZM15.5923 16.9079L18.0155 2.40131L2.29182 11.4693L5.97603 12.9715L15.4388 5.96491L10.1975 14.7039L15.5923 16.9079Z" fill="#0A0A0A"/>
</svg>
