<svg width="28" height="28" viewBox="0 0 28 28" fill="none" xmlns="http://www.w3.org/2000/svg">
<path d="M11.675 10.6313L17.625 14.0125L11.675 17.3937V10.6313ZM28 3V25C28 26.6562 26.6562 28 25 28H3C1.34375 28 0 26.6562 0 25V3C0 1.34375 1.34375 0 3 0H25C26.6562 0 28 1.34375 28 3ZM25.375 14.0187C25.375 14.0187 25.375 10.2938 24.9 8.50625C24.6375 7.51875 23.8688 6.74375 22.8875 6.48125C21.1188 6 14 6 14 6C14 6 6.88125 6 5.1125 6.48125C4.13125 6.74375 3.3625 7.51875 3.1 8.50625C2.625 10.2875 2.625 14.0187 2.625 14.0187C2.625 14.0187 2.625 17.7437 3.1 19.5312C3.3625 20.5187 4.13125 21.2625 5.1125 21.525C6.88125 22 14 22 14 22C14 22 21.1188 22 22.8875 21.5187C23.8688 21.2562 24.6375 20.5125 24.9 19.525C25.375 17.7437 25.375 14.0187 25.375 14.0187Z" fill="#0A0A0A"/>
</svg>
